<svg width="111" height="111" viewBox="0 0 111 111" fill="none" xmlns="http://www.w3.org/2000/svg">
<path d="M2 48.9998C2.00001 20.4998 34.1194 2.4998 55 2.5C75.8806 2.5002 97.5 11.9998 108.5 28.9998C110.258 33.7553 59.5 49.2969 59.5 54.4998C59.5 58.6912 109.156 79.2 108.5 82.9998C97 93.9998 90.8889 108.067 55 108.5C13.5 109 1.99999 79.3354 2 48.9998Z" fill="#FAFF00" stroke="black" stroke-width="4"/>
<path d="M46 46C46 52.5618 40.4703 58 33.5 58C26.5297 58 21 52.5618 21 46C21 39.4382 26.5297 34 33.5 34C40.4703 34 46 39.4382 46 46Z" fill="white" stroke="black" stroke-width="4"/>
<ellipse cx="36" cy="46.5" rx="7" ry="6.5" fill="black"/>
</svg>
