<svg width="118" height="107" viewBox="0 0 118 107" fill="none" xmlns="http://www.w3.org/2000/svg">
<path d="M56.5 2C89 2.00002 115.5 25.0001 115.5 52.5002C115.5 83.5002 98 104.5 56.5 105C15 105.5 1.99999 78.3356 2 48C2.00001 19.5 35.6194 1.99998 56.5 2Z" fill="#FAFF00"/>
<path d="M115.5 52.5002C115.5 25.0001 89 2.00002 56.5 2C35.6194 1.99998 2.00001 19.5 2 48C1.99999 78.3356 15 105.5 56.5 105C98 104.5 115.5 83.5002 115.5 52.5002ZM115.5 52.5002H56.5" stroke="black" stroke-width="4"/>
<path d="M44 45C44 51.5618 38.4703 57 31.5 57C24.5297 57 19 51.5618 19 45C19 38.4382 24.5297 33 31.5 33C38.4703 33 44 38.4382 44 45Z" fill="white" stroke="black" stroke-width="4"/>
<ellipse cx="34" cy="45.5" rx="7" ry="6.5" fill="black"/>
</svg>
